<svg width="256" height="256" viewBox="0 0 24 24" fill="none" xmlns="http://www.w3.org/2000/svg">
  <path d="M12 22C12 22 12 18 12 15C12 12 14.5 10 17 10C19.5 10 22 12 22 15C22 18 18 22 12 22Z" fill="#F472B6"/>
  <path d="M12 22C12 22 12 18 12 15C12 12 9.5 10 7 10C4.5 10 2 12 2 15C2 18 6 22 12 22Z" fill="#F472B6"/>
  <path d="M12 2C12 2 12 6 12 9C12 12 14.5 14 17 14C19.5 14 22 12 22 9C22 6 18 2 12 2Z" fill="#F472B6"/>
  <path d="M12 2C12 2 12 6 12 9C12 12 9.5 14 7 14C4.5 14 2 12 2 9C2 6 6 2 12 2Z" fill="#F472B6"/>
  <circle cx="12" cy="12" r="3" fill="#FDE047"/>
</svg>
